# xmcd
#
# Track frame offsets:
# 150
# 19424
# 39092
# 53414
# 68535
# 88452
# 103912
# 125576
#
# Disc length: 1932 seconds
#
#
# Revision: 0
# Processed by: cddbd v1.5.2PL0 Copyright (c) Steve Scherf et al.
# Submitted via: HACP 1.20
#
DISCID=65078a08
DTITLE=Dirty Cello - The Beach House Sessions
DYEAR=1900
DGENRE=
TTITLE0=Jolene
TTITLE1=Yer Blues
TTITLE2=Sweet Child of Mine
TTITLE3=My Babe
TTITLE4=Sweet Dreams
TTITLE5=Purple Haze
TTITLE6=House of the Rising Sun
TTITLE7=Proud Mary
EXTD=
EXTT0=
EXTT1=
EXTT2=
EXTT3=
EXTT4=
EXTT5=
EXTT6=
EXTT7=
PLAYORDER=
